PathFileType	4	(X/Y/Z)	C:/Users/DISI/Documents/SIV_Franzin_Parola/Rigid-Body Object Trackig/Logs/Alza_001.trc
DataRate	CameraRate	NumFrames	NumMarkers	Units	OrigDataRate	OrigDataStartFrame	OrigNumFrames
360	360	66	25	m	360	3942	10514
Frame#	Time	Marker1			Marker2			Marker3			Marker4			Marker5			Marker6			Unlabeled 1323			Unlabeled 1324			Unlabeled 1325			Unlabeled 1326			Unlabeled 1328			Unlabeled 1329			Unlabeled 1330			Unlabeled 1331			Unlabeled 1332			Unlabeled 1333			Unlabeled 1334			Unlabeled 1335			Unlabeled 1336			Unlabeled 1337			Unlabeled 1338			Unlabeled 1340			Unlabeled 1341			Unlabeled 1342			Unlabeled 1344			
		X1	Y1	Z1	X2	Y2	Z2	X3	Y3	Z3	X4	Y4	Z4	X5	Y5	Z5	X6	Y6	Z6	X7	Y7	Z7	X8	Y8	Z8	X9	Y9	Z9	X10	Y10	Z10	X11	Y11	Z11	X12	Y12	Z12	X13	Y13	Z13	X14	Y14	Z14	X15	Y15	Z15	X16	Y16	Z16	X17	Y17	Z17	X18	Y18	Z18	X19	Y19	Z19	X20	Y20	Z20	X21	Y21	Z21	X22	Y22	Z22	X23	Y23	Z23	X24	Y24	Z24	X25	Y25	Z25
3942	10.95	0.144274	0.140149	0.0872954	0.0773015	0.143606	0.0839144	0.164029	0.137725	0.209033	0.0741	0.14421	0.209803	0.162533	0.139848	0.135119	0.176805	0.138542	0.16697																																																									
3943	10.9528																																																																											
3944	10.9556																																																																											
3945	10.9583	0.144289	0.140165	0.0873016	0.0772983	0.143607	0.0839281	0.164029	0.137714	0.209017	0.0741068	0.144218	0.209812	0.162528	0.139857	0.135115	0.176783	0.13856	0.166961																																																									
3946	10.9611																																																																											
3947	10.9639																																																																											
3948	10.9667	0.14427	0.140173	0.0873123	0.0772903	0.143613	0.0839181	0.164026	0.137726	0.209043	0.0741033	0.144226	0.209805	0.161613	0.14032	0.134747	0.176785	0.138565	0.166973																																																									
3949	10.9694																																																																											
3950	10.9722																																																																											
3951	10.975	0.144268	0.140169	0.0872937	0.0772925	0.143611	0.0839226	0.164035	0.137743	0.209052	0.0740993	0.144203	0.209812	0.161742	0.140192	0.1347	0.176768	0.13859	0.16697																																																									
3952	10.9778	0.144261	0.140194	0.0873005	0.0772862	0.143608	0.0839188	0.164034	0.137737	0.209031	0.0741074	0.14423	0.209807	0.161575	0.140329	0.134749	0.176754	0.138599	0.166978																																																									
3953	10.9806																																																																											
3954	10.9833	0.144253	0.140175	0.0872958	0.0772839	0.143629	0.0839112	0.164029	0.137741	0.209023	0.0741053	0.14422	0.209812	0.161593	0.140338	0.134748	0.176761	0.138602	0.166986																																																									
3955	10.9861																																																																											
3956	10.9889																																																																											
3957	10.9917	0.144266	0.140176	0.0873103	0.0772801	0.14364	0.0839225	0.164036	0.137734	0.209035	0.0741054	0.144228	0.209808	0.161719	0.140216	0.134718	0.176776	0.138578	0.16698																																																									
3958	10.9944	0.144279	0.140185	0.0873218	0.0772741	0.143625	0.0839247	0.164036	0.137748	0.209048	0.0741026	0.144228	0.209807	0.161597	0.140342	0.134766	0.176757	0.138617	0.166994																																																									
3959	10.9972	0.144268	0.140163	0.0873049	0.0772886	0.143631	0.0839169	0.16403	0.137727	0.209035	0.0741152	0.144223	0.209811	0.161575	0.14033	0.134777	0.176787	0.1386	0.166987																																																									
3960	11	0.144259	0.14019	0.0873094	0.0772855	0.143637	0.0839165	0.164046	0.137739	0.209059	0.0741095	0.144213	0.20981	0.161607	0.140321	0.134769	0.176776	0.138592	0.166985																																																									
3961	11.0028																																																																											
3962	11.0056	0.144274	0.140161	0.0873044	0.0772534	0.143641	0.0839199	0.164027	0.13775	0.209059	0.0741077	0.144227	0.20982	0.161607	0.140304	0.134776	0.176766	0.138596	0.166981																																																									
3963	11.0083	0.144266	0.140159	0.0873105	0.0772501	0.143654	0.083935	0.164043	0.13773	0.209057	0.0741163	0.144225	0.209809	0.161603	0.140302	0.134777	0.176792	0.138573	0.166977																																																									
3964	11.0111																																																																											
3965	11.0139	0.144279	0.140163	0.0873066	0.0772549	0.143651	0.0839254	0.164046	0.137743	0.20905	0.0741123	0.144211	0.209815	0.161623	0.140305	0.134777	0.176792	0.138584	0.166979																																																									
3966	11.0167	0.144279	0.140161	0.0873003	0.0772593	0.143638	0.083936	0.164023	0.137735	0.20903	0.0741138	0.144221	0.209806	0.162531	0.139867	0.135136	0.176792	0.138576	0.166969																																																									
3967	11.0194																																																																											
3968	11.0222	0.144294	0.140154	0.087292	0.0772831	0.143639	0.0839248	0.164045	0.137739	0.209048	0.0741101	0.144221	0.209801	0.161637	0.1403	0.134769	0.176811	0.138584	0.166964																																																									
3969	11.025																																																																											
3970	11.0278																																																																											
3971	11.0306	0.14429	0.140157	0.0872866	0.0772563	0.14366	0.0839107	0.164027	0.137719	0.209024	0.0741224	0.144237	0.209807	0.161785	0.140178	0.134698	0.176798	0.138579	0.166966																																																									
3972	11.0333																																																																											
3973	11.0361																																																																											
3974	11.0389	0.144295	0.140154	0.0872793	0.0772542	0.143661	0.0839347	0.16403	0.13772	0.20904	0.0741129	0.144199	0.209798	0.161767	0.140193	0.134709	0.176834	0.138561	0.166948																																																									
3975	11.0417	0.145024	0.14113	0.087436	0.0772451	0.143667	0.0839274	0.164034	0.137735	0.209036	0.0741273	0.144214	0.209807	0.162561	0.139861	0.135108	0.176813	0.138574	0.166962																																																									
3976	11.0444																																																																											
3977	11.0472	0.144655	0.1408	0.087251	0.0772225	0.143674	0.0839285	0.164037	0.137731	0.209046	0.0741019	0.144218	0.209808	0.161652	0.140296	0.134753	0.176795	0.138581	0.16696																																																									
3978	11.05																																																																											
3979	11.0528																																																																											
3980	11.0556	0.144571	0.140834	0.0872483	0.0772206	0.143695	0.0839418	0.164048	0.137737	0.209054	0.0741158	0.144209	0.209817	0.161764	0.140198	0.13471	0.176782	0.138587	0.166984																																																									
3981	11.0583	0.144556	0.140837	0.0872588	0.0772321	0.143687	0.0839511	0.164051	0.13775	0.209048	0.0741031	0.144214	0.209792	0.161744	0.140185	0.134711	0.176795	0.138584	0.166959																																																									
3982	11.0611																																																																											
3983	11.0639	0.144518	0.140843	0.0872777	0.0772332	0.143688	0.0839643	0.164046	0.137736	0.209046	0.0741068	0.144209	0.209817	0.161785	0.140205	0.134708	0.176791	0.138595	0.166973																																																									
3984	11.0667	0.144981	0.141139	0.087472	0.0772184	0.143684	0.0839555	0.164027	0.13775	0.209043	0.0741168	0.144195	0.209808	0.161757	0.140192	0.134715	0.176772	0.138585	0.166976																																																									
3985	11.0694																																																																											
3986	11.0722	0.144663	0.140806	0.0872572	0.0772185	0.143675	0.0839686	0.164022	0.13773	0.209048	0.0741044	0.144217	0.20982	0.162573	0.139868	0.135132	0.176805	0.138592	0.166986																																																									
3987	11.075																																																																											
3988	11.0778																																																																											
3989	11.0806	0.144286	0.14087	0.0873021	0.0772158	0.143687	0.0839794	0.164016	0.137749	0.209039	0.074118	0.144202	0.209817	0.162557	0.139849	0.135141	0.17683	0.138565	0.166971																																																									
3990	11.0833	0.144262	0.14087	0.0872979	0.0772269	0.143674	0.0839806	0.164029	0.137738	0.209065	0.0741219	0.144191	0.209804	0.162553	0.139869	0.135128	0.176792	0.138582	0.166977																																																									
3991	11.0861																																																																											
3992	11.0889	0.144215	0.140855	0.0872857	0.0772174	0.143659	0.0839813	0.164028	0.137739	0.209037	0.0741301	0.144209	0.209809	0.162587	0.139848	0.135138	0.1768	0.138567	0.166973																																																									
3993	11.0917																																																																											
3994	11.0944																																																																											
3995	11.0972	0.143998	0.140777	0.0872385	0.0772218	0.143645	0.083961	0.164025	0.13772	0.209048	0.074126	0.144206	0.209811	0.162589	0.139841	0.135126	0.176813	0.13856	0.166977																																																									
3996	11.1	0.144029	0.140782	0.0872318	0.0772186	0.143643	0.0839758	0.164023	0.137731	0.209037	0.0741324	0.144187	0.209802	0.162588	0.139843	0.135122	0.176808	0.138574	0.166975																																																									
3997	11.1028																																																																											
3998	11.1056	0.144001	0.140777	0.0872308	0.0772128	0.143629	0.0839706	0.164032	0.137732	0.20904	0.0741323	0.144191	0.209815	0.162566	0.139847	0.135134	0.176831	0.138562	0.166976																																																									
3999	11.1083	0.143944	0.140838	0.0872663	0.0772154	0.143632	0.0839871	0.164037	0.13773	0.209035	0.0741198	0.144191	0.209814	0.162592	0.139855	0.135112	0.176821	0.13855	0.16697																																																									
4000	11.1111																																																																											
4001	11.1139	0.143879	0.140862	0.0872825	0.0772023	0.143644	0.083987	0.164025	0.137729	0.209037	0.0741216	0.144213	0.20981	0.16257	0.139847	0.135127	0.176846	0.138546	0.166966																																																									
4002	11.1167																																																																											
4003	11.1194																																																																											
4004	11.1222	0.143811	0.140855	0.0872816	0.0772211	0.143623	0.0839685	0.164025	0.137746	0.209026	0.0741379	0.144199	0.209808	0.16259	0.139841	0.135129	0.176841	0.138537	0.16697																																																									
4005	11.125	0.143784	0.140861	0.0872747	0.0772161	0.143635	0.0839851	0.164007	0.137739	0.209026	0.0741244	0.144191	0.209807	0.162584	0.13985	0.135119	0.17683	0.138554	0.166968																																																									
4006	11.1278																																																																											
4007	11.1306	0.143758	0.140855	0.0872762	0.0772177	0.143632	0.0839775	0.164011	0.137732	0.209021	0.0741294	0.144215	0.209801	0.162575	0.13986	0.135136	0.176827	0.138568	0.166976																																																									
